<mxfile host="65bd71144e" modified="2023-03-15T09:28:33.687Z" agent="5.0 (X11; Linux x86_64) AppleWebKit/537.36 (KHTML, like Gecko) Code/1.76.0 Chrome/102.0.5005.196 Electron/19.1.11 Safari/537.36" version="20.8.23" etag="WfKXj8mi3EbsF0xd7F5e" type="embed">
    <diagram id="wH08jF6_dY3qbmY5xXes" name="Stages">
        <mxGraphModel dx="1964" dy="1432" grid="1" gridSize="10" guides="1" tooltips="1" connect="1" arrows="1" fold="1" page="1" pageScale="1" pageWidth="1654" pageHeight="1169" math="0" shadow="0">
            <root>
                <mxCell id="0"/>
                <mxCell id="1" parent="0"/>
                <mxCell id="6" value="Managment Cluster&lt;br&gt;GitOps&lt;br&gt;PROTOTYPE" style="rounded=0;whiteSpace=wrap;html=1;fontSize=14;fontStyle=1;fillColor=#f8cecc;strokeColor=#b85450;" parent="1" vertex="1">
                    <mxGeometry x="40" y="960" width="1560" height="80" as="geometry"/>
                </mxCell>
                <mxCell id="7" value="Workload Cluster&lt;br&gt;Template&lt;br&gt;PROTOTYPE" style="rounded=0;whiteSpace=wrap;html=1;fontSize=14;fontStyle=1;fillColor=#f8cecc;strokeColor=#b85450;" parent="1" vertex="1">
                    <mxGeometry x="40" y="760" width="1560" height="120" as="geometry"/>
                </mxCell>
                <mxCell id="10" value="Management Cluster&lt;br&gt;Services&lt;br&gt;PROTOTYPE" style="rounded=0;whiteSpace=wrap;html=1;fontSize=14;fontStyle=1;fillColor=#f8cecc;strokeColor=#b85450;" parent="1" vertex="1">
                    <mxGeometry x="40" y="880" width="1560" height="80" as="geometry"/>
                </mxCell>
                <mxCell id="11" value="Workload Cluster&lt;br&gt;Services&lt;br&gt;PROTOTYPE" style="rounded=0;whiteSpace=wrap;html=1;fontSize=14;fontStyle=1;fillColor=#f8cecc;strokeColor=#b85450;" parent="1" vertex="1">
                    <mxGeometry x="40" y="600" width="1560" height="80" as="geometry"/>
                </mxCell>
                <mxCell id="15" value="Pipeline&lt;br&gt;CaaS&lt;br&gt;PROTOTYPE" style="rounded=0;whiteSpace=wrap;html=1;fontSize=14;fontStyle=1;fillColor=#f8cecc;strokeColor=#b85450;" parent="1" vertex="1">
                    <mxGeometry x="40" y="440" width="800" height="160" as="geometry"/>
                </mxCell>
                <mxCell id="16" value="Workload Cluster&lt;br&gt;GitOps&lt;br&gt;PROTOTYPE" style="rounded=0;whiteSpace=wrap;html=1;fontSize=14;fontStyle=1;fillColor=#f8cecc;strokeColor=#b85450;" parent="1" vertex="1">
                    <mxGeometry x="40" y="680" width="1560" height="80" as="geometry"/>
                </mxCell>
                <mxCell id="17" value="Workload Cluster&lt;br&gt;Template&lt;br&gt;DEV / PROD" style="rounded=0;whiteSpace=wrap;html=1;fontSize=14;fontStyle=1;fillColor=#f8cecc;strokeColor=#b85450;" parent="1" vertex="1">
                    <mxGeometry x="40" y="280" width="800" height="80" as="geometry"/>
                </mxCell>
                <mxCell id="18" value="Management Cluster&lt;br&gt;Template&lt;br&gt;DEV / PROD" style="rounded=0;whiteSpace=wrap;html=1;fontSize=14;fontStyle=1;fillColor=#f8cecc;strokeColor=#b85450;" parent="1" vertex="1">
                    <mxGeometry x="40" y="360" width="800" height="80" as="geometry"/>
                </mxCell>
                <mxCell id="21" value="Pipeline&lt;br&gt;Apps&lt;br&gt;PROTOTYPE" style="rounded=0;whiteSpace=wrap;html=1;fontSize=14;fontStyle=1;fillColor=#f8cecc;strokeColor=#b85450;" parent="1" vertex="1">
                    <mxGeometry x="840" y="440" width="760" height="160" as="geometry"/>
                </mxCell>
                <mxCell id="22" value="Apps&lt;br&gt;Template" style="rounded=0;whiteSpace=wrap;html=1;fontSize=14;fontStyle=1;fillColor=#f8cecc;strokeColor=#b85450;" parent="1" vertex="1">
                    <mxGeometry x="840" y="280" width="760" height="160" as="geometry"/>
                </mxCell>
                <mxCell id="27" value="Apps&lt;br&gt;D" style="rounded=0;whiteSpace=wrap;html=1;fontSize=14;fontStyle=1;fillColor=#f8cecc;strokeColor=#b85450;" parent="1" vertex="1">
                    <mxGeometry x="1440" y="120" width="160" height="160" as="geometry"/>
                </mxCell>
                <mxCell id="28" value="Apps&lt;br&gt;C" style="rounded=0;whiteSpace=wrap;html=1;fontSize=14;fontStyle=1;fillColor=#f8cecc;strokeColor=#b85450;" parent="1" vertex="1">
                    <mxGeometry x="1240" y="120" width="160" height="160" as="geometry"/>
                </mxCell>
                <mxCell id="29" value="Apps&lt;br&gt;B" style="rounded=0;whiteSpace=wrap;html=1;fontSize=14;fontStyle=1;fillColor=#f8cecc;strokeColor=#b85450;" parent="1" vertex="1">
                    <mxGeometry x="1040" y="120" width="160" height="160" as="geometry"/>
                </mxCell>
                <mxCell id="30" value="Apps&lt;br&gt;A" style="rounded=0;whiteSpace=wrap;html=1;fontSize=14;fontStyle=1;fillColor=#f8cecc;strokeColor=#b85450;" parent="1" vertex="1">
                    <mxGeometry x="840" y="120" width="160" height="160" as="geometry"/>
                </mxCell>
                <mxCell id="33" value="Management Cluster&lt;br&gt;Template&lt;br&gt;DOCKER&lt;br&gt;PROTOTYPE" style="rounded=0;whiteSpace=wrap;html=1;fontSize=14;fontStyle=1;fillColor=#f8cecc;strokeColor=#b85450;" parent="1" vertex="1">
                    <mxGeometry x="40" y="1040" width="520" height="120" as="geometry"/>
                </mxCell>
                <mxCell id="40" value="Management Cluster&lt;br&gt;Template&lt;br&gt;vSphere&lt;br&gt;PROTOTYPE" style="rounded=0;whiteSpace=wrap;html=1;fontSize=14;fontStyle=1;fillColor=#f8cecc;strokeColor=#b85450;" parent="1" vertex="1">
                    <mxGeometry x="1080" y="1040" width="520" height="120" as="geometry"/>
                </mxCell>
                <mxCell id="41" value="Apps&lt;br&gt;A" style="rounded=0;whiteSpace=wrap;html=1;fontSize=14;fontStyle=1;fillColor=#f8cecc;strokeColor=#b85450;" parent="1" vertex="1">
                    <mxGeometry x="840" y="120" width="160" height="160" as="geometry"/>
                </mxCell>
                <mxCell id="42" value="Apps&lt;br&gt;B" style="rounded=0;whiteSpace=wrap;html=1;fontSize=14;fontStyle=1;fillColor=#f8cecc;strokeColor=#b85450;" parent="1" vertex="1">
                    <mxGeometry x="1040" y="120" width="160" height="160" as="geometry"/>
                </mxCell>
            </root>
        </mxGraphModel>
    </diagram>
</mxfile>